<?xml version="1.0" encoding="utf-8"?>
<!-- Generator: Adobe Illustrator 25.2.3, SVG Export Plug-In . SVG Version: 6.00 Build 0)  -->
<svg version="1.1" id="Layer_1" xmlns="http://www.w3.org/2000/svg" xmlns:xlink="http://www.w3.org/1999/xlink" x="0px" y="0px"
	 viewBox="0 0 100 100" style="enable-background:new 0 0 100 100;" xml:space="preserve">
<style type="text/css">
	.st0{fill:#FFFFF9;}
</style>
<circle class="st0" cx="50" cy="50" r="27.5"/>
<path class="st0" d="M91.67,50c0-4.92,1.78-9.41,4.73-12.89c0.89-1.06,1.2-2.49,0.74-3.8c-2.06-5.83-5.18-11.16-9.12-15.77
	c-0.9-1.06-2.3-1.52-3.67-1.27c-4.48,0.81-9.26,0.1-13.52-2.35c-4.26-2.46-7.26-6.25-8.8-10.53c-0.47-1.3-1.55-2.28-2.91-2.54
	C56.17,0.29,53.12,0,50,0s-6.17,0.29-9.13,0.85c-1.36,0.25-2.44,1.24-2.91,2.54c-1.54,4.29-4.54,8.08-8.8,10.53
	c-4.25,2.46-9.03,3.16-13.52,2.35c-1.37-0.25-2.76,0.22-3.67,1.27c-3.94,4.61-7.06,9.94-9.12,15.77c-0.46,1.31-0.15,2.74,0.74,3.8
	C6.55,40.59,8.33,45.08,8.33,50c0,4.92-1.78,9.41-4.73,12.89c-0.89,1.06-1.2,2.49-0.74,3.8c2.06,5.83,5.18,11.16,9.12,15.77
	c0.9,1.06,2.3,1.52,3.67,1.27c4.48-0.81,9.26-0.1,13.52,2.35c4.26,2.46,7.26,6.25,8.8,10.53c0.47,1.3,1.55,2.28,2.91,2.54
	C43.83,99.71,46.88,100,50,100s6.17-0.29,9.13-0.85c1.36-0.25,2.44-1.24,2.91-2.54c1.54-4.29,4.54-8.08,8.8-10.53
	c4.25-2.46,9.03-3.16,13.52-2.35c1.37,0.25,2.76-0.22,3.67-1.27c3.94-4.61,7.06-9.94,9.12-15.77c0.46-1.31,0.15-2.74-0.74-3.8
	C93.45,59.41,91.67,54.92,91.67,50z M50,3.54c2.35,0,4.25,1.9,4.25,4.25c0,2.35-1.9,4.25-4.25,4.25s-4.25-1.9-4.25-4.25
	C45.75,5.45,47.65,3.54,50,3.54z M50,85c-19.33,0-35-15.67-35-35s15.67-35,35-35s35,15.67,35,35S69.33,85,50,85z"/>
</svg>
